<?xml version="1.0" standalone="no"?><!DOCTYPE svg PUBLIC "-//W3C//DTD SVG 1.1//EN" "http://www.w3.org/Graphics/SVG/1.1/DTD/svg11.dtd"><svg t="1588941994497" class="icon" viewBox="0 0 1024 1024" version="1.1" xmlns="http://www.w3.org/2000/svg" p-id="1152" xmlns:xlink="http://www.w3.org/1999/xlink" width="200" height="200"><defs><style type="text/css"></style></defs><path d="M627.458947 482.662241l19.266288 162.056791-140.609771-69.34726-140.628735 69.34726 19.285252-162.056791-106.173178-119.200678 152.518462-30.814684L506.115464 189.628822l74.998199 143.018057 152.518461 30.814684-106.173177 119.200678z m-83.853865-101.792752L506.115464 303.406115l-37.508581 77.463374-76.249749 16.706299 53.077107 64.549651-9.633144 87.779182 70.314367-37.546507 70.314367 37.546507-9.633144-87.779182 53.077107-64.549651-76.268712-16.706299z" fill="#0099FF" p-id="1153"></path><path d="M563.00411 474.072055m-303.406115 0a303.406115 303.406115 0 1 0 606.812231 0 303.406115 303.406115 0 1 0-606.812231 0Z" fill="#0099FF" opacity=".2" p-id="1154"></path><path d="M996.590412 934.964907s-60.339891-31.554236-93.904193-12.212097c-38.115393 21.97798-50.062009 95.193669-50.062009 95.193669-19.873101 11.453581-44.581736 5.897456-55.163024-12.420688l-120.357413-208.098669v0.018963a413.713201 413.713201 0 0 1-79.833734 26.623887c-0.967107 0.208592-1.877325 0.511998-2.844433 0.739552-12.325873 2.654804-24.879301 4.626943-37.565469 6.162937-2.123843 0.26548-4.171834 0.739552-6.31464 0.967107-14.601419 1.554956-29.41143 2.427249-44.430033 2.427249a421.924129 421.924129 0 0 1-43.178483-2.237621c-1.687697-0.170666-3.299542-0.568886-4.987238-0.758515a418.946956 418.946956 0 0 1-37.167249-5.802642l-1.441179-0.379257a413.068463 413.068463 0 0 1-78.051223-24.784487L224.118443 1003.326097c-10.467511 18.147478-34.891703 23.646714-54.537249 12.30691 0 0-11.813876-72.514062-49.493123-94.264487-33.185044-19.171474-92.842271 12.098319-92.842271 12.098319-19.645546-11.358766-27.078996-35.251998-16.611485-53.399476l140.837326-243.95748-0.018963-0.037926A414.338976 414.338976 0 0 1 112.540844 554.474675a393.555657 393.555657 0 0 1-14.298013-49.967194c-0.85333-4.020131-1.460142-8.135076-2.199695-12.212096a412.385799 412.385799 0 0 1-5.214792-37.603396 415.28712 415.28712 0 0 1-1.896288-37.508581c0-230.399019 186.78439-417.183408 417.183408-417.183408s417.183408 186.78439 417.183408 417.183408c0 12.62928-0.777478 25.06893-1.896288 37.394804a410.736028 410.736028 0 0 1-5.669902 40.713308c-0.948144 4.968275-2.066954 9.879662-3.185764 14.791048a404.838572 404.838572 0 0 1-11.339804 40.277162c-1.365328 3.982205-2.863395 7.888559-4.323537 11.813876a414.964751 414.964751 0 0 1-16.38393 38.172281c-0.625775 1.289476-1.213624 2.597915-1.877325 3.887391-3.849465 7.679967-7.926485 15.208232-12.231059 22.603756l-0.018963 0.018963 147.019225 254.216398c10.600251 18.318144 3.071987 42.43893-16.801113 53.892512zM866.410226 417.183408c0-198.996486-161.317239-360.294762-360.294762-360.294761s-360.294762 161.298276-360.294762 360.294761c0 198.977523 161.317239 360.294762 360.294762 360.294762s360.294762-161.317239 360.294762-360.294762z" fill="#0099FF" p-id="1155"></path></svg>